<svg xmlns="http://www.w3.org/2000/svg" width="213" height="41" viewBox="0 0 213 41">
  <path fill="#ffff" d="M46.1850464 37.6038613L46.1850464 25.8390502 47.5282923 25.8390502C49.0639319 33.503205 52.6892211 37.3377399 58.4146923 37.3377399 60.9944545 37.3377399 62.9794811 36.6053796 64.3964545 35.1336372 65.8127257 33.6689164 66.5148929 32.0216322 66.5148929 30.2058279 66.5148929 28.3787889 65.9019009 26.8333189 64.6513412 25.5925895 63.4134204 24.3680099 61.1440161 23.0535529 57.8452347 21.6428991 54.9136867 20.3930415 52.6969449 19.2885325 51.2111591 18.3349895 49.71133 17.3975963 48.5422217 16.1624842 47.7059406 14.6563356 46.8710638 13.1396545 46.4532743 11.5345003 46.4532743 9.82331889 46.4532743 7.2126613 47.3541548 5.04015604 49.1629375 3.30229226 50.975231 1.56653498 53.2699133.69795418 56.0357498.69795418 57.5854328.69795418 59.0459406.944414861 60.4116557 1.4464644 61.7794774 1.9534291 63.1908334 3.00176471 64.6274675 4.58234303 65.4539183 3.59369164 65.9180508 2.51375851 66.0310997 1.365013L67.2233796 1.365013 67.2233796 10.9559146 66.0310997 10.9559146C65.347891 8.16128916 64.133844 5.96701672 62.3966824 4.3604582 60.6581164 2.75951703 58.6506204 1.95693994 56.3608533 1.95693994 54.1820285 1.95693994 52.5902155 2.55448421 51.5706687 3.72780557 50.546909 4.90674427 50.0455616 6.20154056 50.0455616 7.60236409 50.0455616 9.294587 50.6796186 10.7241994 51.9702019 11.8947121 53.2193573 13.0947158 55.5035071 14.4190031 58.7952669 15.9005759 61.9423802 17.3049102 64.2363604 18.4290799 65.6666749 19.2871282 67.099096 20.1353461 68.2464372 21.3248173 69.1101028 22.8414985 69.9758749 24.3476471 70.4063034 26.0939368 70.4063034 28.0761548 70.4063034 31.2078204 69.3607765 33.7580916 67.2669139 35.7206489 65.1793709 37.6775889 62.3959802 38.6620272 58.900592 38.6620272 54.8848978 38.6620272 51.542582 37.1207703 48.8567926 34.0487889 48.2606526 34.8864743 47.816883 36.0766477 47.5282923 37.602457L46.1850464 37.602457M89.4722489 24.4894848L86.5231467 25.6733387C81.883226 27.5663814 79.5583505 29.9404087 79.5583505 32.8059529 79.5583505 33.9301226 79.8553672 34.8541746 80.4479963 35.5465115 81.0364124 36.2444656 81.8207331 36.5793994 82.7686588 36.5793994 83.6168768 36.5793994 84.6055282 36.3041498 85.7100372 35.7473313 86.8356111 35.1898105 88.0861709 34.3514229 89.4722489 33.2384879L89.4722489 24.4894848zM97.3028173 33.9301226L98.2984904 33.9301226C98.1341833 37.0077214 96.6266303 38.564426 93.7624904 38.564426 92.5407195 38.564426 91.5773461 38.2273858 90.8562204 37.5799876 90.1484359 36.9382068 89.6857077 35.9685139 89.4722489 34.6891653 87.6641684 35.9685139 86.0295232 36.9382068 84.5437375 37.5799876 83.0565474 38.2273858 81.7280471 38.564426 80.560343 38.564426 79.0647269 38.564426 77.7769523 38.1269759 76.6956149 37.262608 75.6156817 36.3996446 75.0743108 35.2565164 75.0743108 33.8297127 75.0743108 31.9682675 75.978 30.3525808 77.7916978 28.9707158 79.5962675 27.5811269 82.0938762 26.2315616 85.281013 24.9157003L89.4722489 23.2255839 89.4722489 22.1309053C89.4722489 20.6043938 89.3711368 19.4998848 89.1731257 18.8131653 88.9723059 18.1299567 88.4660433 17.5176669 87.6304644 16.9755938 86.8075245 16.4398402 85.7100372 16.1624842 84.3681957 16.1624842 81.6697672 16.1624842 80.1622142 17.060556 79.8560693 18.8679344 79.568883 20.7055059 78.8189684 21.6183232 77.5873672 21.6183232 76.4898799 21.6183232 75.9464025 21.096613 75.9464025 20.0581077 75.9464025 19.034348 76.6717412 17.9354563 78.1294402 16.7501981 79.585735 15.5712594 81.8565437 14.9793325 84.9397598 14.9793325 87.2232074 14.9793325 88.9947752 15.3451616 90.2544632 16.0578613 91.5127467 16.7754762 92.3441127 17.5991183 92.7492632 18.5119356 93.1565201 19.4366898 93.3573399 20.8410241 93.3573399 22.7340669L93.3573399 31.6670378C93.3573399 33.7601981 93.462665 35.1006353 93.685252 35.6890514 93.8966043 36.2908087 94.3649498 36.5808037 95.0888842 36.5808037 96.2755467 36.5793994 97.0107158 35.6925622 97.3028173 33.9301226L97.3028173 33.9301226zM106.619874 14.9786303L106.885995 14.9786303C107.404897 16.1828471 107.666103 17.7346365 107.666103 19.6276793 108.875937 18.076592 110.174244 16.9159096 111.568046 16.1379084 112.965359 15.3704396 114.467996 14.9786303 116.070342 14.9786303 117.888955 14.9786303 119.362804 15.4006328 120.503825 16.2179554 121.633612 17.0514279 122.422146 18.2970724 122.87364 19.9584 124.251994 18.2970724 125.646498 17.0514279 127.088047 16.2179554 128.525383 15.4006328 129.995721 14.9786303 131.485018 14.9786303 133.201817 14.9786303 134.648983 15.38027 135.839157 16.1638885 137.025117 16.9608483 137.748349 17.8547071 137.999023 18.8686365 138.248994 19.8825659 138.373278 21.4982526 138.373278 23.7571245L138.373278 30.3982217C138.373278 32.9737709 138.42243 34.5438167 138.528457 35.1006353 138.62325 35.6574539 138.915351 36.0801585 139.387207 36.3455777 139.872405 36.6060817 140.748007 36.7465152 142.049825 36.7465152L142.049825 37.9858402 131.002629 37.9858402 131.002629 36.7465152C132.179461 36.7465152 132.996082 36.6208272 133.476364 36.3497907 133.956646 36.0892867 134.241024 35.6918601 134.347051 35.1659368 134.458696 34.6322898 134.50855 33.0474985 134.50855 30.3975195L134.50855 23.0345944C134.50855 21.5389783 134.430609 20.4141065 134.257876 19.6564681 134.089356 18.8988297 133.639267 18.2514316 132.924461 17.7093585 132.192802 17.1714985 131.261027 16.8962489 130.109472 16.8962489 128.941768 16.8962489 127.761425 17.287356 126.588806 18.0801028 125.406357 18.8784669 124.21829 20.0721511 123.034436 21.6737944L123.034436 30.3975195C123.034436 32.7560991 123.066736 34.2418848 123.129228 34.8352161 123.195934 35.4453994 123.445204 35.9130427 123.886867 36.2437635 124.327126 36.5808037 125.117766 36.7465152 126.246851 36.7465152L126.246851 37.9858402 115.558462 37.9858402 115.558462 36.7465152C116.759168 36.7465152 117.599662 36.6208272 118.080646 36.3701536 118.560227 36.1138625 118.860052 35.7227554 118.973101 35.2101734 119.089661 34.6779307 119.146536 33.083309 119.146536 30.3975195L119.146536 24.2697065C119.146536 22.3211926 119.077022 20.9168582 118.908502 20.0391492 118.765259 19.1705684 118.301127 18.4220582 117.523126 17.8006402 116.754955 17.177818 115.797199 16.8660557 114.637921 16.8660557 113.514453 16.8660557 112.383964 17.2220545 111.224686 17.9459889 110.065408 18.6783492 108.875235 19.7477498 107.666103 21.1878947L107.666103 30.3982217C107.666103 32.8382526 107.711041 34.3436991 107.774237 34.9349238 107.854986 35.5331703 108.118298 35.9797486 108.587346 36.2908087 109.056394 36.5927406 109.889164 36.7472173 111.0997 36.7472173L111.0997 37.9865424 100.275793 37.9865424 100.275793 36.7472173C101.460349 36.7472173 102.293822 36.6215294 102.769189 36.3504929 103.243854 36.0899889 103.540168 35.6925622 103.645493 35.1862997 103.757138 34.654057 103.811205 33.0636483 103.811205 30.3989238L103.811205 23.7936372C103.811205 21.2637288 103.765564 19.7182588 103.684113 19.1466947 103.607576 18.5884718 103.332327 18.1580433 102.847129 17.8764743 102.375975 17.5808619 101.51582 17.4446415 100.276495 17.4446415L100.276495 16.2053164C102.830277 15.9363864 104.948014 15.5354489 106.619874 14.9786303M160.602487 22.2657214C160.651638 21.8542514 160.675512 21.4884223 160.675512 21.1612124 160.675512 19.5806341 160.21489 18.3518415 159.287328 17.4783455 158.36468 16.6034452 157.225765 16.1624842 155.879008 16.1624842 152.595674 16.1624842 150.644352 18.2107059 150.014508 22.2650192L160.602487 22.2650192 160.602487 22.2657214zM165.321752 23.356187L149.912693 23.356187C149.836157 24.4136508 149.796836 25.2078019 149.796836 25.7295121 149.796836 29.6195183 150.403508 32.5356186 151.618258 34.4883455 152.833709 36.4452854 154.6453 37.4248087 157.06216 37.4248087 160.339174 37.4248087 162.663347 35.9586836 164.033276 33.0187096L165.322454 33.0187096C164.749486 34.8548768 163.602145 36.2908087 161.897985 37.3300161 160.186102 38.362904 158.323954 38.8747839 156.305224 38.8747839 154.426926 38.8747839 152.66238 38.3973102 150.997542 37.459917 149.340427 36.5211195 147.97401 35.1870019 146.910929 33.4491381 145.849252 31.7232111 145.309988 29.6300508 145.309988 27.1556136 145.309988 23.6672471 146.33445 20.7609771 148.393906 18.4515492 150.449851 16.1386105 153.016975 14.9786303 156.088254 14.9786303 158.988204 14.9786303 161.22882 15.8619567 162.819931 17.6243963 164.395594 19.4008793 165.233279 21.298135 165.321752 23.356187L165.321752 23.356187zM176.641389 20.6254588C177.250168 19.0245176 178.244437 17.6798675 179.624196 16.6055517 181.004656 15.5256186 182.3472 14.9793325 183.663061 14.9793325 184.849022 14.9793325 185.790628 15.3451616 186.467517 16.0824372 187.156343 16.8204149 187.494788 17.5780533 187.494788 18.3511393 187.494788 18.8784669 187.321352 19.3341734 186.96746 19.702109 186.618483 20.0826836 186.18665 20.2687579 185.686005 20.2687579 184.784422 20.2687579 184.106129 19.6108272 183.634272 18.2767096 183.305658 17.3772334 182.828887 16.9215269 182.170956 16.9215269 181.395763 16.9215269 180.47452 17.4530675 179.396693 18.5021053 178.306228 19.555356 177.624424 20.6493325 177.313363 21.7833325 177.011432 22.9229498 176.86187 24.4740372 176.86187 26.4625746L176.86187 30.3975195C176.86187 32.7553969 176.886446 34.2418848 176.954556 34.8541746 177.011432 35.4664644 177.27334 35.9320012 177.724833 36.2592111 178.172114 36.5808037 178.967669 36.7451108 180.122032 36.7451108L180.877564 36.7451108 180.877564 37.9865424 169.136627 37.9865424 169.136627 36.7451108 169.701871 36.7451108C170.778293 36.7451108 171.55489 36.5997622 172.005682 36.3041498 172.46209 36.002218 172.745064 35.5900458 172.838452 35.0444619 172.921308 34.4981759 172.963438 32.9569189 172.963438 30.3975195L172.963438 24.1685944C172.963438 21.7840347 172.934649 20.2933337 172.878476 19.6915765 172.808259 19.0792867 172.55267 18.622878 172.101879 18.2956681 171.653896 17.9544149 170.85483 17.7788731 169.702573 17.7788731L169.137329 17.7788731 169.137329 16.5746563C170.828147 16.3745387 173.040676 15.846509 175.777724 14.9793325 176.295923 16.4047319 176.585216 18.2809226 176.641389 20.6254588M204.132639 24.4894848L201.187048 25.6733387C196.54151 27.5663814 194.222251 29.9404087 194.222251 32.8059529 194.222251 33.9301226 194.516459 34.8541746 195.10628 35.5465115 195.705931 36.2444656 196.479017 36.5793994 197.431858 36.5793994 198.279373 36.5793994 199.263812 36.3041498 200.372534 35.7473313 201.497406 35.1898105 202.745157 34.3514229 204.131937 33.2384879L204.131937 24.4894848 204.132639 24.4894848zM211.965314 33.9301226L212.956774 33.9301226C212.797382 37.0077214 211.284914 38.564426 208.427093 38.564426 207.197599 38.564426 206.233523 38.2273858 205.519419 37.5799876 204.808124 36.9382068 204.348204 35.9685139 204.132639 34.6891653 202.328069 35.9685139 200.689211 36.9382068 199.202021 37.5799876 197.716235 38.2273858 196.396863 38.564426 195.21652 38.564426 193.722308 38.564426 192.434534 38.1269759 191.359516 37.262608 190.280285 36.3996446 189.73751 35.2565164 189.73751 33.8297127 189.73751 31.9682675 190.641901 30.3525808 192.447875 28.9707158 194.25736 27.5811269 196.759181 26.2315616 199.939297 24.9157003L204.132639 23.2255839 204.132639 22.1309053C204.132639 20.6043938 204.031527 19.4998848 203.830707 18.8131653 203.636207 18.1299567 203.11871 17.5176669 202.291557 16.9755938 201.464404 16.4398402 200.373938 16.1624842 199.025777 16.1624842 196.325944 16.1624842 194.824711 17.060556 194.516459 18.8679344 194.229975 20.7055059 193.473039 21.6183232 192.242842 21.6183232 191.153781 21.6183232 190.601175 21.096613 190.601175 20.0581077 190.601175 19.034348 191.329323 17.9354563 192.782107 16.7501981 194.247529 15.5712594 196.50921 14.9793325 199.591724 14.9793325 201.887108 14.9793325 203.653761 15.3451616 204.907129 16.0578613 206.173137 16.7754762 206.997481 17.5991183 207.41176 18.5119356 207.818315 19.4366898 208.018432 20.8410241 208.018432 22.7340669L208.018432 31.6670378C208.018432 33.7601981 208.123757 35.1006353 208.342131 35.6890514 208.562612 36.2908087 209.023233 36.5808037 209.748572 36.5808037 210.933128 36.5793994 211.671808 35.6925622 211.965314 33.9301226L211.965314 33.9301226zM17.8729635 25.1923542C16.0389028 27.0341387 16.0389028 30.0064124 17.8729635 31.8278341 19.7042155 33.6752359 22.6870217 33.6752359 24.5175715 31.8278341 26.359356 30.0064124 26.359356 27.0341387 24.5175715 25.1923542 22.6870217 23.3596978 19.7042155 23.3596978 17.8729635 25.1923542M26.26667 23.4460644C29.0619975 26.2406898 29.0619975 30.7879245 26.26667 33.5839542 23.4580012 36.3905164 18.9241077 36.3905164 16.128078 33.5839542 14.8494316 32.3053077 14.1669251 30.668556 14.0503653 28.9973981L9.19417709 33.8507777 6.90581424 31.5764582 17.2382043 21.2426638C15.5670464 21.1373387 13.9302947 20.4485127 12.6530526 19.1698663 9.85210774 16.3647084 9.85210774 11.8364322 12.6530526 9.0312743 15.4511889 6.22611641 19.9885932 6.22611641 22.7895381 9.0312743 24.0667802 10.3218576 24.7471802 11.9565028 24.8637399 13.6283628L29.7206303 8.76445077 31.999865 11.0486006 21.6815183 21.3732669C23.3484632 21.482805 24.9824062 22.175844 26.26667 23.4460644M19.4577548 1.85863653C8.7103839 1.85863653 0 10.5662118 0 21.3072632 0 32.0588471 8.7103839 40.7664223 19.4577548 40.7664223 30.1988062 40.7664223 38.9155096 32.0588471 38.9155096 21.3072632 38.9155096 10.5662118 30.1988062 1.85863653 19.4577548 1.85863653M14.3958316 10.7768619C12.5652817 12.6200508 12.5652817 15.5909201 14.3958316 17.4235765 16.2327009 19.2590415 19.2021659 19.2590415 21.0369288 17.4235765 22.8780111 15.5909201 22.8780111 12.6200508 21.0369288 10.7768619 19.2028681 8.93999257 16.2284879 8.93999257 14.3958316 10.7768619"/>
</svg>
